<?xml version="1.0" standalone="no"?>
<!DOCTYPE svg PUBLIC "-//W3C//DTD SVG 1.1//EN" "http://www.w3.org/Graphics/SVG/1.1/DTD/svg11.dtd" >
<svg xmlns="http://www.w3.org/2000/svg">
<metadata></metadata>
<defs>
<font id="code39regular" horiz-adv-x="655" >
<font-face units-per-em="2048" ascent="1638" descent="-410" />
<missing-glyph horiz-adv-x="500" />
<glyph unicode="&#xd;" />
<glyph unicode=" " />
<glyph unicode="$" d="M0 0v2048h51v-2048h-51zM205 0v2048h51v-2048h-51zM410 0v2048h51v-2048h-51zM614 0v2048h52v-2048h-52zM717 0v2048h51v-2048h-51z" />
<glyph unicode="%" d="M0 0v2048h51v-2048h-51zM102 0v2048h52v-2048h-52zM307 0v2048h51v-2048h-51zM512 0v2048h51v-2048h-51zM717 0v2048h51v-2048h-51z" />
<glyph unicode="+" d="M0 0v2048h51v-2048h-51zM205 0v2048h51v-2048h-51zM307 0v2048h51v-2048h-51zM512 0v2048h51v-2048h-51zM723 0v2048h51v-2048h-51z" />
<glyph unicode="-" d="M0 0v2048h51v-2048h-51zM205 0v2048h51v-2048h-51zM307 0v2048h51v-2048h-51zM410 0v2048h153v-2048h-153zM614 0v2048h154v-2048h-154z" />
<glyph unicode="." d="M0 0v2048h154v-2048h-154zM307 0v2048h51v-2048h-51zM410 0v2048h51v-2048h-51zM512 0v2048h154v-2048h-154zM717 0v2048h51v-2048h-51z" />
<glyph unicode="/" d="M0 0v2048h51v-2048h-51zM205 0v2048h51v-2048h-51zM410 0v2048h51v-2048h-51zM512 0v2048h51v-2048h-51zM717 0v2048h51v-2048h-51z" />
<glyph unicode="0" d="M0 0v2048h51v-2048h-51zM102 0v2048h52v-2048h-52zM307 0v2048h154v-2048h-154zM512 0v2048h154v-2048h-154zM717 0v2048h51v-2048h-51z" />
<glyph unicode="1" d="M0 0v2048h154v-2048h-154zM205 0v2048h51v-2048h-51zM410 0v2048h51v-2048h-51zM512 0v2048h51v-2048h-51zM614 0v2048h154v-2048h-154z" />
<glyph unicode="2" d="M0 0v2048h51v-2048h-51zM102 0v2048h154v-2048h-154zM410 0v2048h51v-2048h-51zM512 0v2048h51v-2048h-51zM614 0v2048h154v-2048h-154z" />
<glyph unicode="3" d="M0 0v2048h154v-2048h-154zM205 0v2048h153v-2048h-153zM512 0v2048h51v-2048h-51zM614 0v2048h52v-2048h-52zM717 0v2048h51v-2048h-51z" />
<glyph unicode="4" d="M0 0v2048h51v-2048h-51zM102 0v2048h52v-2048h-52zM307 0v2048h154v-2048h-154zM512 0v2048h51v-2048h-51zM614 0v2048h154v-2048h-154z" />
<glyph unicode="5" d="M0 0v2048h154v-2048h-154zM205 0v2048h51v-2048h-51zM410 0v2048h153v-2048h-153zM614 0v2048h52v-2048h-52zM717 0v2048h51v-2054z" />
<glyph unicode="6" d="M0 0v2048h51v-2048h-51zM102 0v2048h154v-2048h-154zM410 0v2048h153v-2048h-153zM614 0v2048h52v-2048h-52zM717 0v2048h51v-2048h-51z" />
<glyph unicode="7" d="M0 0v2048h51v-2048h-51zM102 0v2048h52v-2048h-52zM307 0v2048h51v-2048h-51zM410 0v2048h153v-2048h-153zM614 0v2048h154v-2048h-154z" />
<glyph unicode="8" d="M0 0v2048h154v-2048h-154zM205 0v2048h51v-2048h-51zM410 0v2048h51v-2048h-51zM512 0v2048h154v-2048h-154zM717 0v2048h51v-2048h-51z" />
<glyph unicode="9" d="M0 0v2048h51v-2048h-51zM102 0v2048h154v-2048h-154zM410 0v2048h51v-2048h-51zM512 0v2048h154v-2048h-154zM717 0v2048h51v-2048h-51z" />
<glyph unicode="@" d="M0 0v2048h51v-2048h-51zM205 0v2048h51v-2048h-51zM307 0v2048h154v-2048h-154zM512 0v2048h154v-2048h-154zM717 0v2048h51v-2048h-51z" />
<glyph unicode="A" d="M0 0v2048h154v-2048h-154zM205 0v2048h51v-2048h-51zM307 0v2048h51v-2048h-51zM512 0v2048h51v-2048h-51zM614 0v2048h154v-2048h-154z" />
<glyph unicode="B" d="M0 0v2048h51v-2048h-51zM102 0v2048h154v-2048h-154zM307 0v2048h51v-2048h-51zM512 0v2048h51v-2048h-51zM614 0v2048h154v-2048h-154z" />
<glyph unicode="C" d="M0 0v2048h154v-2048h-154zM205 0v2048h153v-2048h-153zM410 0v2048h51v-2048h-51zM614 0v2048h52v-2048h-52zM717 0v2048h51v-2048h-51z" />
<glyph unicode="D" d="M0 0v2048h51v-2048h-51zM102 0v2048h52v-2048h-52zM205 0v2048h153v-2048h-153zM512 0v2048h51v-2048h-51zM614 0v2048h154v-2048h-154z" />
<glyph unicode="E" d="M0 0v2048h154v-2048h-154zM205 0v2048h51v-2048h-51zM307 0v2048h154v-2048h-154zM614 0v2048h52v-2048h-52zM717 0v2048h51v-2048h-51z" />
<glyph unicode="F" d="M0 0v2048h51v-2048h-51zM102 0v2048h154v-2048h-154zM307 0v2048h154v-2048h-154zM614 0v2048h52v-2048h-52zM717 0v2048h51v-2048h-51z" />
<glyph unicode="G" d="M0 0v2048h51v-2048h-51zM102 0v2048h52v-2048h-52zM205 0v2048h51v-2048h-51zM410 0v2048h153v-2048h-153zM614 0v2048h154v-2048h-154z" />
<glyph unicode="H" d="M0 0v2048h154v-2048h-154zM205 0v2048h51v-2048h-51zM307 0v2048h51v-2048h-51zM512 0v2048h154v-2048h-154zM717 0v2048h51v-2048h-51z" />
<glyph unicode="I" d="M0 0v2048h51v-2048h-51zM102 0v2048h154v-2048h-154zM307 0v2048h51v-2048h-51zM512 0v2048h154v-2048h-154zM717 0v2048h51v-2048h-51z" />
<glyph unicode="J" d="M0 0v2048h51v-2048h-51zM102 0v2048h52v-2048h-52zM205 0v2048h153v-2048h-153zM512 0v2048h154v-2048h-154zM717 0v2048h51v-2048h-51z" />
<glyph unicode="K" d="M0 0v2048h154v-2048h-154zM205 0v2048h51v-2048h-51zM307 0v2048h51v-2048h-51zM410 0v2048h51v-2048h-51zM614 0v2048h154v-2048h-154z" />
<glyph unicode="L" d="M0 0v2048h51v-2048h-51zM102 0v2048h154v-2048h-154zM307 0v2048h51v-2048h-51zM410 0v2048h51v-2048h-51zM614 0v2048h154v-2048h-154z" />
<glyph unicode="M" d="M0 0v2048h154v-2048h-154zM205 0v2048h153v-2048h-153zM410 0v2048h51v-2048h-51zM512 0v2048h51v-2048h-51zM717 0v2048h51v-2048h-51z" />
<glyph unicode="N" d="M0 0v2048h51v-2048h-51zM102 0v2048h52v-2048h-52zM205 0v2048h153v-2048h-153zM410 0v2048h51v-2048h-51zM614 0v2048h154v-2048h-154z" />
<glyph unicode="O" d="M0 0v2048h154v-2048h-154zM205 0v2048h51v-2048h-51zM307 0v2048h154v-2048h-154zM512 0v2048h51v-2048h-51zM717 0v2048h51v-2048h-51z" />
<glyph unicode="P" d="M0 0v2048h51v-2048h-51zM102 0v2048h154v-2048h-154zM307 0v2048h154v-2048h-154zM512 0v2048h51v-2048h-51zM717 0v2048h51v-2048h-51z" />
<glyph unicode="Q" d="M0 0v2048h51v-2048h-51zM102 0v2048h52v-2048h-52zM205 0v2048h51v-2048h-51zM307 0v2048h154v-2048h-154zM614 0v2048h154v-2048h-154z" />
<glyph unicode="R" d="M0 0v2048h154v-2048h-154zM205 0v2048h51v-2048h-51zM307 0v2048h51v-2048h-51zM410 0v2048h153v-2048h-153zM717 0v2048h51v-2048h-51z" />
<glyph unicode="S" d="M0 0v2048h51v-2048h-51zM102 0v2048h154v-2048h-154zM307 0v2048h51v-2048h-51zM410 0v2048h153v-2048h-153zM717 0v2048h51v-2048h-51z" />
<glyph unicode="T" d="M0 0v2048h51v-2048h-51zM102 0v2048h52v-2048h-52zM205 0v2048h153v-2048h-153zM410 0v2048h153v-2048h-153zM717 0v2048h51v-2048h-51z" />
<glyph unicode="U" d="M0 0v2048h154v-2048h-154zM307 0v2048h51v-2048h-51zM410 0v2048h51v-2048h-51zM512 0v2048h51v-2048h-51zM614 0v2048h154v-2048h-154z" />
<glyph unicode="V" d="M0 0v2048h51v-2048h-51zM205 0v2048h153v-2048h-153zM410 0v2048h51v-2048h-51zM512 0v2048h51v-2048h-51zM614 0v2048h154v-2048h-154z" />
<glyph unicode="W" d="M0 0v2048h154v-2048h-154zM307 0v2048h154v-2048h-154zM512 0v2048h51v-2048h-51zM614 0v2048h52v-2048h-52zM717 0v2048h51v-2048h-51z" />
<glyph unicode="X" d="M0 0v2048h51v-2048h-51zM205 0v2048h51v-2048h-51zM307 0v2048h154v-2048h-154zM512 0v2048h51v-2048h-51zM614 0v2048h154v-2048h-154z" />
<glyph unicode="Y" d="M0 0v2048h154v-2048h-154zM307 0v2048h51v-2048h-51zM410 0v2048h153v-2048h-153zM614 0v2048h52v-2048h-52zM717 0v2048h51v-2048h-51z" />
<glyph unicode="Z" d="M0 0v2048h51v-2048h-51zM205 0v2048h153v-2048h-153zM410 0v2048h153v-2048h-153zM614 0v2048h52v-2048h-52zM717 0v2048h51v-2048h-51z" />
<glyph unicode="&#xad;" d="M0 0v2048h51v-2048h-51zM205 0v2048h51v-2048h-51zM307 0v2048h51v-2048h-51zM410 0v2048h153v-2048h-153zM614 0v2048h154v-2048h-154z" />
<glyph unicode="&#xfd;" horiz-adv-x="0" />
<glyph unicode="&#x2000;" horiz-adv-x="1024" />
<glyph unicode="&#x2001;" horiz-adv-x="2048" />
<glyph unicode="&#x2002;" horiz-adv-x="1024" />
<glyph unicode="&#x2003;" horiz-adv-x="2048" />
<glyph unicode="&#x2004;" horiz-adv-x="682" />
<glyph unicode="&#x2005;" horiz-adv-x="512" />
<glyph unicode="&#x2006;" horiz-adv-x="341" />
<glyph unicode="&#x2007;" horiz-adv-x="341" />
<glyph unicode="&#x2008;" horiz-adv-x="256" />
<glyph unicode="&#x2009;" horiz-adv-x="409" />
<glyph unicode="&#x200a;" horiz-adv-x="113" />
<glyph unicode="&#x2010;" d="M0 0v2048h51v-2048h-51zM205 0v2048h51v-2048h-51zM307 0v2048h51v-2048h-51zM410 0v2048h153v-2048h-153zM614 0v2048h154v-2048h-154z" />
<glyph unicode="&#x2011;" d="M0 0v2048h51v-2048h-51zM205 0v2048h51v-2048h-51zM307 0v2048h51v-2048h-51zM410 0v2048h153v-2048h-153zM614 0v2048h154v-2048h-154z" />
<glyph unicode="&#x2012;" d="M0 0v2048h51v-2048h-51zM205 0v2048h51v-2048h-51zM307 0v2048h51v-2048h-51zM410 0v2048h153v-2048h-153zM614 0v2048h154v-2048h-154z" />
<glyph unicode="&#x2013;" horiz-adv-x="911" d="M0 0v2048h68v-2048h-68zM273 0v2048h68v-2048h-68zM409 0v2048h68v-2048h-68zM547 0v2048h204v-2048h-204zM819 0v2048h205v-2048h-205z" />
<glyph unicode="&#x2014;" horiz-adv-x="1935" d="M0 0v2048h136v-2048h-136zM547 0v2048h136v-2048h-136zM819 0v2048h136v-2048h-136zM1093 0v2048h408v-2048h-408zM1637 0v2048h411v-2048h-411z" />
<glyph unicode="&#x202f;" horiz-adv-x="409" />
<glyph unicode="&#x205f;" horiz-adv-x="512" />
<glyph unicode="&#x25fc;" horiz-adv-x="1024" d="M0 0z" />
</font>
</defs>
</svg>
